<?xml version="1.0" encoding="UTF-8"?>
<svg width="97px" height="100px" viewBox="0 0 97 100" version="1.1" xmlns="http://www.w3.org/2000/svg" xmlns:xlink="http://www.w3.org/1999/xlink">
    <!-- Generator: Sketch 50.2 (55047) - http://www.bohemiancoding.com/sketch -->
    <title>001-content</title>
    <desc>Created with Sketch.</desc>
    <defs></defs>
    <g id="Page-1" stroke="none" stroke-width="1" fill="none" fill-rule="evenodd">
        <g id="подсказка" transform="translate(-572.000000, -119.000000)" fill="#00A597" fill-rule="nonzero">
            <g id="001-content" transform="translate(572.000000, 119.000000)">
                <path d="M76.924269,61.1663743 C70.2830409,61.1663743 64.4163743,64.5350877 60.9359649,69.6520468 L36.4880117,56.1111111 C37.902924,53.425731 38.7128655,50.377193 38.7128655,47.1374269 C38.7128655,43.9868421 37.9394737,41.0187135 36.5964912,38.3883041 L55.1555556,30.3131579 C58.6464912,35.3467836 64.4584795,38.6532164 71.0347953,38.6532164 C81.6912281,38.6532164 90.3616959,29.9830409 90.3616959,19.3263158 C90.3614035,8.66959064 81.6918129,0 71.0345029,0 C60.378655,0 51.7093567,8.66959064 51.7093567,19.3263158 C51.7093567,21.5157895 52.0921053,23.6122807 52.7652047,25.575731 L33.4877193,33.9640351 C29.9578947,30.1891813 24.9502924,27.8105263 19.3859649,27.8105263 C8.73011696,27.8105263 0.0605263158,36.4807018 0.0605263158,47.1374269 C0.0605263158,57.794152 8.72982456,66.4646199 19.3859649,66.4646199 C24.8865497,66.4646199 29.845614,64.1432749 33.3687135,60.4409357 L58.5938596,74.4105263 C57.9564327,76.3260234 57.598538,78.3669591 57.598538,80.4932749 C57.598538,91.1497076 66.2681287,99.8207602 76.924269,99.8207602 C87.5807018,99.8207602 96.2511696,91.1505848 96.2511696,80.4932749 C96.2511696,69.8368421 87.5807018,61.1663743 76.924269,61.1663743 Z M71.0345029,5.29707602 C78.769883,5.29707602 85.0634503,11.5903509 85.0634503,19.3263158 C85.0634503,27.0628655 78.7701754,33.3555556 71.0345029,33.3555556 C63.2988304,33.3555556 57.0055556,27.0628655 57.0055556,19.3263158 C57.0064327,11.5903509 63.2991228,5.29707602 71.0345029,5.29707602 Z M19.3862573,61.1663743 C11.6511696,61.1663743 5.35789474,54.8733918 5.35789474,47.1374269 C5.35789474,39.4008772 11.6508772,33.1081871 19.3862573,33.1081871 C27.1219298,33.1081871 33.4154971,39.4008772 33.4154971,47.1374269 C33.4157895,54.8733918 27.1219298,61.1663743 19.3862573,61.1663743 Z M76.924269,94.522807 C69.1888889,94.522807 62.8959064,88.2295322 62.8959064,80.4935673 C62.8959064,72.7570175 69.1885965,66.4646199 76.924269,66.4646199 C84.6599415,66.4646199 90.9535088,72.7570175 90.9535088,80.4935673 C90.9538012,88.2292398 84.6596491,94.522807 76.924269,94.522807 Z" id="Shape"></path>
            </g>
        </g>
    </g>
</svg>