<?xml version="1.0" encoding="UTF-8"?>
<svg width="91px" height="100px" viewBox="0 0 91 100" version="1.1" xmlns="http://www.w3.org/2000/svg" xmlns:xlink="http://www.w3.org/1999/xlink">
    <!-- Generator: Sketch 50.2 (55047) - http://www.bohemiancoding.com/sketch -->
    <title>Icon</title>
    <desc>Created with Sketch.</desc>
    <defs></defs>
    <g id="Page-1" stroke="none" stroke-width="1" fill="none" fill-rule="evenodd">
        <g id="подсказка" transform="translate(-668.000000, -152.000000)" fill="#00A597" fill-rule="nonzero">
            <g id="Icon" transform="translate(668.000000, 152.000000)">
                <g id="002-code" transform="translate(18.367347, 29.591837)">
                    <path d="M33.8330997,0.572571013 L31.9941839,0.0684426442 C31.7574908,-0.0104896921 31.5243288,0.0143324505 31.2976061,0.142701355 C31.0701563,0.271174119 30.9165498,0.464039051 30.8376175,0.720984577 L19.7773277,39.0019214 C19.6983954,39.2589708 19.7231137,39.5013761 19.8515864,39.7284104 C19.9800592,39.9558602 20.1725087,40.1090513 20.4298697,40.1879836 L22.2682661,40.6923197 C22.5054785,40.7718752 22.7378096,40.7469492 22.9651555,40.6183725 C23.1926053,40.4892766 23.3459002,40.2970348 23.4247287,40.0405048 L34.48533,1.7589448 C34.5641585,1.50199927 34.5396479,1.25959391 34.4109674,1.0320403 C34.2823908,0.804590539 34.090149,0.651399491 33.8330997,0.572571013 Z" id="Shape"></path>
                    <path d="M17.2578283,8.04538609 C17.2578283,7.78844057 17.1588513,7.56088695 16.9612089,7.36334839 L15.4784234,5.88066677 C15.280781,5.68302435 15.0533313,5.5839435 14.7963857,5.5839435 C14.5394402,5.5839435 14.3118866,5.68312821 14.114348,5.88066677 L0.296619411,19.6983954 C0.0986654204,19.8960378 0,20.1234876 0,20.3804331 C0,20.6373786 0.0989769954,20.8648284 0.296619411,21.0623669 L14.1142442,34.8800955 C14.3117827,35.0780495 14.5389209,35.1765072 14.7962819,35.1765072 C15.0536428,35.1765072 15.280781,35.077738 15.4783196,34.8800955 L16.9611051,33.3982448 C17.1587475,33.2007062 17.2577245,32.9731526 17.2577245,32.7158955 C17.2577245,32.4592616 17.1587475,32.2318118 16.9611051,32.0342733 L5.30788804,20.3804331 L16.9612089,8.72742379 C17.1591629,8.52988524 17.2578283,8.30233162 17.2578283,8.04538609 Z" id="Shape"></path>
                    <path d="M53.966246,19.6980838 L40.1482058,5.8803552 C39.9506673,5.68281664 39.7231137,5.58363193 39.4665836,5.58363193 C39.2092226,5.58363193 38.9824999,5.68281664 38.7842343,5.8803552 L37.302072,7.36293296 C37.1045334,7.56057538 37.0059719,7.78771356 37.0059719,8.04497066 C37.0059719,8.30222776 37.1044296,8.5294698 37.302072,8.72700836 L48.9556006,20.3803292 L37.302072,32.0342733 C37.1045334,32.2318118 37.0059719,32.4593654 37.0059719,32.7158955 C37.0059719,32.9732565 37.1044296,33.2007062 37.302072,33.3982448 L38.7842343,34.8800955 C38.9824999,35.0780495 39.2093265,35.1765072 39.4665836,35.1765072 C39.7232175,35.1765072 39.9506673,35.077738 40.1482058,34.8800955 L53.966246,21.0624708 C54.1638885,20.8649322 54.2626577,20.637067 54.2626577,20.3801215 C54.2626577,20.1230721 54.1638885,19.8956224 53.966246,19.6980838 Z" id="Shape"></path>
                </g>
                <path d="M82.7707016,19.1003901 L53.4387821,2.14706981 C48.4855895,-0.715820811 42.3309319,-0.715625498 37.3775445,2.14706981 L8.04581983,19.1003901 C3.08288298,21.9685542 0,27.3175776 0,33.0597651 L0,66.9400386 C0,72.6822261 3.08288298,78.0312495 8.04562495,80.8994136 L37.3775445,97.8527339 C42.3317115,100.71621 48.4861741,100.715234 53.4387821,97.8527339 L82.7705067,80.8994136 C87.7334435,78.0312495 90.8163265,72.6822261 90.8163265,66.9400386 L90.8163265,33.0597651 C90.8163265,27.3177729 87.7334435,21.9687495 82.7707016,19.1003901 Z M86.7346939,68.4369316 C86.7346939,71.656134 84.9899863,74.6548984 82.1810669,76.2627991 L49.953011,94.7143301 C47.1494449,96.3196799 43.6666675,96.3196799 40.8631014,94.7143301 L8.63504547,76.2627991 C5.82634028,74.6546859 4.08163265,71.656134 4.08163265,68.4369316 L4.08163265,31.5625668 C4.08163265,28.343577 5.82634028,25.3448126 8.6352596,23.736912 L40.8631014,5.28538091 C43.6668817,3.68003117 47.1507296,3.68066889 49.9532251,5.28538091 L82.1812811,23.7366994 C84.9899863,25.3448126 86.7346939,28.3433644 86.7346939,31.5625668 L86.7346939,68.4369316 Z" id="Shape"></path>
            </g>
        </g>
    </g>
</svg>