<?xml version="1.0" encoding="UTF-8"?>
<svg width="78px" height="100px" viewBox="0 0 78 100" version="1.1" xmlns="http://www.w3.org/2000/svg" xmlns:xlink="http://www.w3.org/1999/xlink">
    <!-- Generator: Sketch 50.2 (55047) - http://www.bohemiancoding.com/sketch -->
    <title>003-list</title>
    <desc>Created with Sketch.</desc>
    <defs></defs>
    <g id="Page-1" stroke="none" stroke-width="1" fill="none" fill-rule="evenodd">
        <g id="подсказка" transform="translate(-338.000000, -119.000000)" fill="#00A597" fill-rule="nonzero">
            <g id="003-list" transform="translate(338.000000, 119.000000)">
                <path d="M53.7934468,0 L0,0 L0,100 L78,100 L78,24.31 L53.7934468,0 Z M54.7659574,5.69 L72.3342128,23.3333333 L54.7659574,23.3333333 L54.7659574,5.69 Z M3.31914894,96.6666667 L3.31914894,3.33333333 L51.4468085,3.33333333 L51.4468085,26.6666667 L74.6808511,26.6666667 L74.6808511,96.6666667 L3.31914894,96.6666667 Z" id="Shape"></path>
                <path d="M60.3333333,35 L33.6666667,35 C32.7466667,35 32,35.6705 32,36.5 C32,37.3295 32.7466667,38 33.6666667,38 L60.3333333,38 C61.2533333,38 62,37.3295 62,36.5 C62,35.6705 61.2533333,35 60.3333333,35 Z" id="Shape"></path>
                <path d="M27.2924739,30.3657451 L20.1239128,36.1003016 L17.8455071,33.8221444 C17.1938197,33.1705282 16.1404529,33.1705282 15.4887655,33.8221444 C14.8370782,34.4737607 14.8370782,35.5270126 15.4887655,36.1786289 L18.8222048,39.5117044 C19.1455484,39.8350128 19.5722286,40 20.0005756,40 C20.3672539,40 20.7355989,39.8800093 21.0406086,39.6350282 L29.3742068,32.9688771 C30.0942296,32.392255 30.2092333,31.3440028 29.634215,30.625725 C29.0608635,29.9057806 28.0108301,29.7907895 27.2924739,30.3657451 Z" id="Shape"></path>
                <path d="M60.3333333,53 L33.6666667,53 C32.7466667,53 32,53.6705 32,54.5 C32,55.3295 32.7466667,56 33.6666667,56 L60.3333333,56 C61.2533333,56 62,55.3295 62,54.5 C62,53.6705 61.2533333,53 60.3333333,53 Z" id="Shape"></path>
                <path d="M27.2924739,48.3657451 L20.1239128,54.1003016 L17.8455071,51.8221444 C17.1938197,51.1705282 16.1404529,51.1705282 15.4887655,51.8221444 C14.8370782,52.4737607 14.8370782,53.5270126 15.4887655,54.1786289 L18.8222048,57.5117044 C19.1455484,57.8350128 19.5722286,58 20.0005756,58 C20.3672539,58 20.7355989,57.8800093 21.0406086,57.6350282 L29.3742068,50.9688771 C30.0942296,50.392255 30.2092333,49.3440028 29.634215,48.625725 C29.0608635,47.9057806 28.0108301,47.7907895 27.2924739,48.3657451 Z" id="Shape"></path>
                <path d="M60.3333333,72 L33.6666667,72 C32.7466667,72 32,72.6705 32,73.5 C32,74.3295 32.7466667,75 33.6666667,75 L60.3333333,75 C61.2533333,75 62,74.3295 62,73.5 C62,72.6705 61.2533333,72 60.3333333,72 Z" id="Shape"></path>
                <path d="M27.2924739,67.3657451 L20.1239128,73.1003016 L17.8455071,70.8221444 C17.1938197,70.1705282 16.1404529,70.1705282 15.4887655,70.8221444 C14.8370782,71.4737607 14.8370782,72.5270126 15.4887655,73.1786289 L18.8222048,76.5117044 C19.1455484,76.8350128 19.5722286,77 20.0005756,77 C20.3672539,77 20.7355989,76.8800093 21.0406086,76.6350282 L29.3742068,69.9688771 C30.0942296,69.392255 30.2092333,68.3440028 29.634215,67.625725 C29.0608635,66.9057806 28.0108301,66.7907895 27.2924739,67.3657451 Z" id="Shape"></path>
            </g>
        </g>
    </g>
</svg>