<?xml version="1.0" encoding="UTF-8"?>
<svg width="419px" height="100px" viewBox="0 0 419 100" version="1.1" xmlns="http://www.w3.org/2000/svg" xmlns:xlink="http://www.w3.org/1999/xlink">
    <!-- Generator: Sketch 49.2 (51160) - http://www.bohemiancoding.com/sketch -->
    <title>exonlab</title>
    <desc>Created with Sketch.</desc>
    <defs>
        <polygon id="path-1" points="0.06 0.321243174 452.982 0.321243174 452.982 100 0.06 100"></polygon>
        <polygon id="path-3" points="0.06 0.321243174 452.982 0.321243174 452.982 100 0.06 100"></polygon>
    </defs>
    <g id="Page-1" stroke="none" stroke-width="1" fill="none" fill-rule="evenodd">
        <g id="Artboard" transform="translate(-92.000000, -77.000000)">
            <g id="exonlab" transform="translate(92.000000, 77.000000)">
                <path d="M372.686,30.714 L372.686,99.212 L371.043,99.212 L365.912,94.135 L318.104,46.336 L318.104,99.212 L311.002,99.212 L311.002,29.105 L317.792,35.9 L365.584,83.699 L365.584,30.714 L372.686,30.714 Z M273.316,29.61 C282.953,29.61 291.182,33.047 298.034,39.904 C304.839,46.809 308.249,55.102 308.249,64.813 C308.249,74.508 304.839,82.801 298.034,89.706 C291.182,96.563 282.953,100 273.316,100 C263.695,100 255.466,96.563 248.615,89.706 C241.81,82.801 238.399,74.508 238.399,64.813 C238.399,55.102 241.81,46.809 248.615,39.904 C255.466,33.047 263.695,29.61 273.316,29.61 Z M273.316,92.89 C281.029,92.89 287.599,90.147 293.028,84.661 C298.472,79.19 301.194,72.569 301.194,64.813 C301.194,57.041 298.472,50.42 293.028,44.949 C287.599,39.463 281.029,36.72 273.316,36.72 C265.619,36.72 259.049,39.463 253.621,44.949 C248.177,50.42 245.454,57.041 245.454,64.813 C245.454,72.569 248.177,79.19 253.621,84.661 C259.049,90.147 265.619,92.89 273.316,92.89 Z M211.304,76.857 L223.866,99.212 L215.528,99.212 L207.143,84.251 L198.758,99.212 L190.357,99.212 L202.966,76.857 L176.981,30.682 L185.273,30.682 L207.143,69.432 L228.903,30.682 L237.288,30.682 L211.304,76.857 Z M174.228,37.887 L174.228,30.635 L121.712,30.635 L121.712,99.212 L174.228,99.212 L174.228,92.007 L129.002,92.007 L129.002,37.887 L174.228,37.887 Z M134.274,80.372 L174.056,80.372 L174.056,73.215 L134.274,73.215 L134.274,80.372 Z" id="Fill-1" fill="#FFFFFF" fill-rule="nonzero"></path>
                <polyline id="Fill-2" fill="#009688" fill-rule="nonzero" points="392.421 99.574 388.878 99.574 388.878 58.479 392.421 56.721 392.421 99.574"></polyline>
                <g id="Group-7">
                    <g id="Fill-4-Clipped">
                        <mask id="mask-2" fill="white">
                            <use xlink:href="#path-1"></use>
                        </mask>
                        <g id="path-1"></g>
                    </g>
                    <g id="Fill-6-Clipped">
                        <mask id="mask-4" fill="white">
                            <use xlink:href="#path-3"></use>
                        </mask>
                        <g id="path-1"></g>
                        <path d="M97.528,31.495 C97.546,27.671 97.585,23.733 95.623,20.975 C89.357,12.165 75.9,17.577 68.729,21.219 C53.428,28.99 40.436,42.316 29.833,55.516 C23.714,63.133 13.64,80.286 15.978,90.446 C18.056,99.474 26.335,99 31.412,99.108 C26.169,100.105 22.063,100.693 17.191,98.497 C11.442,95.904 7.798,91.299 4.336,86.749 C3.207,85.264 2.136,83.751 1.303,81.576 C-4.335,66.858 9.625,46.673 18.348,35.727 C29.141,22.182 49.6,5.278 66.197,1.154 C77.219,-1.584 84.08,2.843 89.712,8.416 C95.321,13.966 100.865,20.114 97.528,31.495" id="Fill-6" fill="#FFFFFF" fill-rule="nonzero" mask="url(#mask-4)"></path>
                    </g>
                </g>
                <path d="M84.1,18.383 C117.896,21.598 71.16,97.042 29.504,95.965 C22.364,95.931 18.755,92.718 17.826,85.513 C47.452,83.629 81.695,44.405 84.1,18.383 Z" id="Fill-13" fill="#E3E2E0" fill-rule="nonzero"></path>
                <g id="Group-19" fill="#009688" fill-rule="nonzero">
                    <path d="M97.528,68.827 C97.546,72.65 97.585,76.588 95.623,79.346 C89.357,88.156 75.9,82.745 68.729,79.103 C53.428,71.331 40.436,58.005 29.833,44.806 C23.714,37.188 13.64,20.035 15.978,9.876 C18.056,0.848 26.335,1.321 31.412,1.213 C26.169,0.216 22.063,-0.372 17.191,1.825 C11.442,4.417 7.798,9.022 4.336,13.572 C3.207,15.057 2.136,16.57 1.303,18.745 C-4.335,33.463 9.625,53.648 18.348,64.594 C29.141,78.14 49.6,95.044 66.197,99.167 C77.219,101.905 84.08,97.479 89.712,91.905 C95.321,86.355 100.865,80.207 97.528,68.827" id="Fill-17"></path>
                </g>
                <path d="M84.1,81.938 C117.896,78.723 71.16,3.279 29.504,4.356 C22.364,4.391 18.755,7.603 17.826,14.809 C47.452,16.692 81.695,55.916 84.1,81.938 Z" id="Fill-20" fill="#009688" fill-rule="nonzero"></path>
                <path d="M50.97,7.655 L69.519,20.824 C63.255,24.02 57.707,27.618 52.731,31.812 L33.789,20.016 C38.868,15.513 44.592,11.401 50.97,7.655 Z" id="Fill-21" fill="#FFFFFF" fill-rule="nonzero"></path>
                <text id="V" font-family="SFProDisplay-Semibold, SF Pro Display" font-size="28" font-weight="500" fill="#009688">
                    <tspan x="400" y="99.6499939">V</tspan>
                </text>
            </g>
        </g>
    </g>
</svg>