<?xml version="1.0" encoding="UTF-8"?>
<svg width="161px" height="50px" viewBox="0 0 161 50" version="1.1" xmlns="http://www.w3.org/2000/svg" xmlns:xlink="http://www.w3.org/1999/xlink">
    <!-- Generator: Sketch 50.2 (55047) - http://www.bohemiancoding.com/sketch -->
    <title>logo </title>
    <desc>Created with Sketch.</desc>
    <defs></defs>
    <g id="Page-1" stroke="none" stroke-width="1" fill="none" fill-rule="evenodd">
        <g id="подсказка" transform="translate(-195.000000, -2263.000000)">
            <g id="logo-" transform="translate(195.000000, 2263.000000)">
                <g id="logo" fill-rule="nonzero">
                    <path d="M49.2342574,15.5867283 C49.2342574,13.6767283 49.2645604,11.7067283 48.2746614,10.3267283 C45.1079947,5.9217283 38.3150655,8.6267283 34.6938533,10.4467283 C26.9665806,14.3317283 20.4059745,20.9967283 15.0473887,27.5967283 C11.9564796,31.4067283 6.87062101,39.9817283 8.05243919,45.0617283 C9.10294424,49.5617283 13.2847624,49.3367283 15.8453685,49.3917283 C13.1989038,49.8917283 11.1231463,50.1867285 8.6635503,49.0867283 C5.7595099,47.7917283 3.92112609,45.4867283 2.17365134,43.2117283 C1.53995525,42.4305403 1.02913788,41.5590348 0.658499823,40.6267283 C-2.18998503,33.2667283 4.86052003,23.1767283 9.24435838,17.7017283 C14.6938533,10.9267283 25.0271867,2.47172832 33.4110251,0.41672832 C38.9665806,-0.95327168 42.4413281,1.26172832 45.2898129,4.04672832 C48.1382978,6.8317283 50.9211263,9.8967283 49.2342574,15.5867283 Z" id="Shape" fill="#494441"></path>
                    <path d="M9.09090909,42.565 C24.0555556,41.625 41.3484848,22.01 42.5606061,9 C59.6313131,10.605 36.0252525,48.33 14.9848485,47.79 C11.3989899,47.77 9.5959596,46.165 9.09090909,42.565 Z" id="Shape" fill="#333333"></path>
                    <path d="M49.2342574,34.2525059 C49.2342574,36.1625059 49.2645604,38.1325059 48.2746614,39.5125059 C45.1079947,43.9175059 38.3150655,41.2125059 34.6938533,39.3925059 C26.9665806,35.5075059 20.4059745,28.8425059 15.0473887,22.2425059 C11.9564796,18.4325059 6.87062101,9.85750585 8.05243919,4.77750587 C9.10294424,0.277505864 13.2847624,0.502505865 15.8453685,0.447505864 C13.1989038,-0.0524941358 11.1231463,-0.347494136 8.6635503,0.752505865 C5.7595099,2.04750587 3.92112609,4.35250587 2.17365134,6.62750585 C1.53995525,7.4086939 1.02913788,8.2801994 0.658499823,9.21250585 C-2.18998503,16.5725059 4.86052003,26.6625059 9.24435838,32.1375059 C14.6938533,38.9125059 25.0271867,47.3625059 33.4110251,49.4225059 C38.9665806,50.792506 42.4413281,48.5775059 45.2898129,45.7925059 C48.1382978,43.0075059 50.9211263,39.9425059 49.2342574,34.2525059 Z" id="Shape" fill="#009688"></path>
                    <path d="M9.09090909,7.2307418 C24.0555556,8.1707418 41.3484848,27.7857418 42.5606061,40.7957418 C59.6313131,39.1907418 36.0252525,1.46574181 14.9848485,2.00574181 C11.3989899,2.02074181 9.5959596,3.63074181 9.09090909,7.2307418 Z" id="Shape" fill="#009688"></path>
                    <path d="M49.2342574,15.5867283 C49.2342574,13.6767283 49.2645604,11.7067283 48.2746614,10.3267283 C45.1079947,5.9217283 38.3150655,8.6267283 34.6938533,10.4467283 C26.9665806,14.3317283 20.4059745,20.9967283 15.0473887,27.5967283 C11.9564796,31.4067283 6.87062101,39.9817283 8.05243919,45.0617283 C9.10294424,49.5617283 13.2847624,49.3367283 15.8453685,49.3917283 C13.1989038,49.8917283 11.1231463,50.1867285 8.6635503,49.0867283 C5.7595099,47.7917283 3.92112609,45.4867283 2.17365134,43.2117283 C1.53995525,42.4305403 1.02913788,41.5590348 0.658499823,40.6267283 C-2.18998503,33.2667283 4.86052003,23.1767283 9.24435838,17.7017283 C14.6938533,10.9267283 25.0271867,2.47172832 33.4110251,0.41672832 C38.9665806,-0.95327168 42.4413281,1.26172832 45.2898129,4.04672832 C48.1382978,6.8317283 50.9211263,9.8967283 49.2342574,15.5867283 Z" id="Shape" fill="#333333"></path>
                    <path d="M4.14510399,24.9163742 C4.88166989,26.04033 5.47249985,26.8774179 5.85765298,27.4238382 C6.24280611,27.9702587 6.70369288,28.6234289 7.24031328,29.3833491 C8.13026823,30.5356686 8.7945796,31.4008324 9.23324742,31.9788407 C9.67191525,32.5568489 10.2158367,33.2462856 10.8650116,34.0471508 C11.4257388,32.992261 11.8763471,32.2148186 12.1907244,31.6984024 C12.5051018,31.1819863 12.9798707,30.4393457 13.6411432,29.4869016 C14.3351773,28.5424047 14.8710923,27.8347484 15.2488882,27.3639326 C15.626684,26.8931169 16.3105267,26.0806902 17.3004162,24.9266524 C16.6017809,24.1562239 16.092637,23.5645796 15.7729842,23.1517195 C15.4533316,22.7388595 14.8540571,21.940211 13.9751608,20.7557741 C13.2916822,19.7021107 12.7821384,18.9165505 12.4465294,18.3990935 C12.1109204,17.8816365 11.570286,17.0078731 10.8515499,15.8105698 C10.1384054,16.5849052 9.59349298,17.2408303 9.18988934,17.7455788 C8.6993652,18.3590303 8.13079899,19.0941124 7.57759212,19.8300104 C6.23389303,21.6174526 5.06975008,23.3116407 4.14510399,24.9163742 Z" id="Path-3" fill="#009688"></path>
                </g>
                <text id="Exon-Lab" font-family="OpenSans-Regular, Open Sans" font-size="24" font-weight="normal" line-spacing="30" fill="#333333">
                    <tspan x="60" y="36">Exon Lab</tspan>
                </text>
            </g>
        </g>
    </g>
</svg>