<?xml version="1.0" encoding="UTF-8"?>
<svg width="100px" height="138px" viewBox="0 0 100 138" version="1.1" xmlns="http://www.w3.org/2000/svg" xmlns:xlink="http://www.w3.org/1999/xlink">
    <!-- Generator: Sketch 49.2 (51160) - http://www.bohemiancoding.com/sketch -->
    <title>logo</title>
    <desc>Created with Sketch.</desc>
    <defs></defs>
    <g id="Page-1" stroke="none" stroke-width="1" fill="none" fill-rule="evenodd">
        <g id="Artboard" transform="translate(-73.000000, -70.000000)">
            <g id="logo" transform="translate(56.000000, 70.000000)">
                <g transform="translate(18.000000, 0.000000)" fill-rule="nonzero">
                    <path d="M97.4838296,31.1734566 C97.4838296,27.3534566 97.5438296,23.4134566 95.5838296,20.6534566 C89.3138296,11.8434566 75.8638296,17.2534566 68.6938296,20.8934566 C53.3938296,28.6634566 40.4038296,41.9934566 29.7938296,55.1934566 C23.6738296,62.8134566 13.6038296,79.9634566 15.9438296,90.1234566 C18.0238296,99.1234566 26.3038296,98.6734566 31.3738296,98.7834566 C26.1338296,99.7834566 22.0238296,100.373457 17.1538296,98.1734566 C11.4038296,95.5834566 7.76382965,90.9734566 4.30382965,86.4234566 C3.0491114,84.8610806 2.037693,83.1180696 1.30382965,81.2534566 C-4.33617035,66.5334566 9.62382965,46.3534566 18.3038296,35.4034566 C29.0938296,21.8534566 49.5538296,4.94345664 66.1538296,0.83345664 C77.1538296,-1.90654336 84.0338296,2.52345664 89.6738296,8.09345664 C95.3138296,13.6634566 100.82383,19.7934566 97.4838296,31.1734566 Z" id="Shape" fill="#494441"></path>
                    <path d="M18,85.13 C47.63,83.25 81.87,44.02 84.27,18 C118.07,21.21 71.33,96.66 29.67,95.58 C22.57,95.54 19,92.33 18,85.13 Z" id="Shape" fill="#FFFFFF"></path>
                    <path d="M97.4838296,68.5050117 C97.4838296,72.3250117 97.5438296,76.2650117 95.5838296,79.0250117 C89.3138296,87.8350117 75.8638296,82.4250117 68.6938296,78.7850117 C53.3938296,71.0150117 40.4038296,57.6850117 29.7938296,44.4850117 C23.6738296,36.8650117 13.6038296,19.7150117 15.9438296,9.55501173 C18.0238296,0.555011728 26.3038296,1.00501173 31.3738296,0.895011728 C26.1338296,-0.104988272 22.0238296,-0.694988272 17.1538296,1.50501173 C11.4038296,4.09501173 7.76382965,8.70501173 4.30382965,13.2550117 C3.0491114,14.8173878 2.037693,16.5603988 1.30382965,18.4250117 C-4.33617035,33.1450117 9.62382965,53.3250117 18.3038296,64.2750117 C29.0938296,77.8250117 49.5538296,94.7250117 66.1538296,98.8450117 C77.1538296,101.585012 84.0338296,97.1550117 89.6738296,91.5850117 C95.3138296,86.0150117 100.82383,79.8850117 97.4838296,68.5050117 Z" id="Shape" fill="#3075C9"></path>
                    <path d="M18,14.4614836 C47.63,16.3414836 81.87,55.5714836 84.27,81.5914836 C118.07,78.3814836 71.33,2.93148362 29.67,4.01148362 C22.57,4.04148362 19,7.26148362 18,14.4614836 Z" id="Shape" fill="#3075C9"></path>
                    <path d="M97.4838296,31.1734566 C97.4838296,27.3534566 97.5438296,23.4134566 95.5838296,20.6534566 C89.3138296,11.8434566 75.8638296,17.2534566 68.6938296,20.8934566 C53.3938296,28.6634566 40.4038296,41.9934566 29.7938296,55.1934566 C23.6738296,62.8134566 13.6038296,79.9634566 15.9438296,90.1234566 C18.0238296,99.1234566 26.3038296,98.6734566 31.3738296,98.7834566 C26.1338296,99.7834566 22.0238296,100.373457 17.1538296,98.1734566 C11.4038296,95.5834566 7.76382965,90.9734566 4.30382965,86.4234566 C3.0491114,84.8610806 2.037693,83.1180696 1.30382965,81.2534566 C-4.33617035,66.5334566 9.62382965,46.3534566 18.3038296,35.4034566 C29.0938296,21.8534566 49.5538296,4.94345664 66.1538296,0.83345664 C77.1538296,-1.90654336 84.0338296,2.52345664 89.6738296,8.09345664 C95.3138296,13.6634566 100.82383,19.7934566 97.4838296,31.1734566 Z" id="Shape" fill="#FFFFFF"></path>
                    <path d="M8.20730591,49.8327484 C9.66570638,52.08066 10.8355497,53.7548357 11.5981529,54.8476765 C12.3607561,55.9405173 13.2733119,57.2468578 14.3358203,58.7666981 C16.0979311,61.0713371 17.4132676,62.8016648 18.2818299,63.9576813 C19.1503922,65.1136978 20.2273566,66.4925712 21.512723,68.0943016 C22.6229629,65.984522 23.5151672,64.4296371 24.1376343,63.3968048 C24.7601015,62.3639726 25.700144,60.8786914 27.0094635,58.9738032 C28.3836511,57.0848094 29.4447628,55.6694967 30.1927986,54.7278652 C30.9408344,53.7862337 32.2948429,52.1613803 34.254824,49.8533048 C32.8715262,48.3124477 31.8634212,47.1291591 31.2305088,46.303439 C30.5975965,45.477719 29.411033,43.880422 27.6708184,41.5115481 C26.3175308,39.4042214 25.308634,37.833101 24.6441282,36.7981869 C23.9796223,35.7632729 22.9091663,34.0157462 21.4860687,31.6211395 C20.0740426,33.1698103 18.9951161,34.4816605 18.1959809,35.4911575 C17.2247431,36.7180606 16.098982,38.1882248 15.0036324,39.6600207 C12.3431082,43.2349051 10.0381052,46.6232813 8.20730591,49.8327484 Z" id="Path-3" fill="#3075C9"></path>
                </g>
                <text id="Exon-Lab" font-family="OpenSans-Regular, Open Sans" font-size="24" font-weight="normal" fill="#FFFFFF">
                    <tspan x="15.5527344" y="137">Exon Lab</tspan>
                </text>
            </g>
        </g>
    </g>
</svg>