<?xml version="1.0" encoding="UTF-8"?>
<svg width="295px" height="300px" viewBox="0 0 295 300" version="1.1" xmlns="http://www.w3.org/2000/svg" xmlns:xlink="http://www.w3.org/1999/xlink">
    <!-- Generator: Sketch 50.2 (55047) - http://www.bohemiancoding.com/sketch -->
    <title>logo</title>
    <desc>Created with Sketch.</desc>
    <defs></defs>
    <g id="Page-1" stroke="none" stroke-width="1" fill="none" fill-rule="evenodd">
        <g id="подсказка" transform="translate(-681.000000, -1709.000000)" fill-rule="nonzero">
            <g id="logo" transform="translate(681.000000, 1709.000000)">
                <path d="M54.036,256.450311 C143.131051,250.780617 246.088004,132.470983 253.304613,54 C354.938522,63.6807016 214.395064,291.222426 89.1267608,287.965368 C67.7776261,287.844736 57.0429204,278.164034 54.036,256.450311 Z" id="Shape" fill="#DADADA"></path>
                <path d="M291.16704,206.177962 C291.16704,217.674929 291.34625,229.533056 285.492075,237.839765 C266.764688,264.35502 226.591906,248.072667 205.176378,237.117442 C159.477971,213.732252 120.679127,173.613256 88.9889248,133.885519 C70.7095621,110.95178 40.6322445,59.3358185 47.6214126,28.7574996 C53.8340065,1.67040607 78.5649091,3.02476075 93.7081067,2.69369627 C78.0571491,-0.315980795 65.7813025,-2.09169026 51.2354697,4.52959928 C34.0612318,12.3246629 23.1891926,26.1992741 12.8547816,39.8933047 C9.10715905,44.5955522 6.08623032,49.8414524 3.89430966,55.4533351 C-12.9513776,99.7557814 28.7446852,160.491064 54.6703173,193.447028 C86.898148,234.228152 148.008567,285.091695 197.589845,297.491564 C230.444909,305.73808 250.994258,292.40521 267.839945,275.641309 C284.685632,258.877408 301.143034,240.428087 291.16704,206.177962 Z" id="Shape" fill="#FFFFFF"></path>
                <path d="M54.036,43.5496888 C143.131051,49.2193832 246.088004,167.529017 253.304613,246 C354.938522,236.319298 214.395064,8.77757376 89.1267608,12.0346322 C67.7776261,12.1251061 57.0429204,21.8359656 54.036,43.5496888 Z" id="Shape" fill="#DADADA"></path>
                <path d="M291.16704,93.8220372 C291.16704,82.3250709 291.34625,70.4669432 285.492075,62.1602345 C266.764688,35.6449796 226.591906,51.9273325 205.176378,62.882557 C159.477971,86.2677478 120.679127,126.386743 88.9889248,166.11448 C70.7095621,189.048219 40.6322445,240.664181 47.6214126,271.2425 C53.8340065,298.329593 78.5649091,296.975239 93.7081067,297.306303 C78.0571491,300.31598 65.7813025,302.091691 51.2354697,295.4704 C34.0612318,287.675337 23.1891926,273.800725 12.8547816,260.106695 C9.10715905,255.404448 6.08623032,250.158547 3.89430966,244.546664 C-12.9513776,200.244218 28.7446852,139.508935 54.6703173,106.552971 C86.898148,65.771847 148.008567,14.878208 197.589845,2.50843533 C230.444909,-5.73807981 250.994258,7.59478956 267.839945,24.3586908 C284.685632,41.1225919 301.143034,59.5719123 291.16704,93.8220372 Z" id="Shape" fill="#FFFFFF"></path>
                <path d="M24.016,149.888694 C28.39611,156.550928 31.7313534,161.501496 34.0217297,164.740396 C36.3121061,167.979296 39.0528449,171.850955 42.2439463,176.355372 C47.5362095,183.185732 51.4866461,188.31398 54.0952564,191.740117 C56.7038667,195.166254 59.9383847,199.252881 63.7988101,204 C67.1332666,197.747154 69.7352431,193.090206 71.6047394,190.029155 C73.4742361,186.968105 76.375167,182.614779 80.3075323,176.969179 C84.4347203,171.370685 87.6216269,167.176061 89.868252,164.385306 C92.1148771,161.594551 96.1814599,156.778902 102.068,149.938357 C97.9134507,145.371652 94.8857427,141.864687 92.9848753,139.417464 C91.0840081,136.970242 87.520324,132.236263 82.293823,125.215527 C78.2294054,118.96995 75.1993193,114.313552 73.2035653,111.246332 C71.207811,108.179112 68.0728927,103.097001 63.7988101,96 C59.5579793,100.589864 56.2375158,104.380741 53.8374205,107.372631 C50.9204381,111.008858 47.5393658,115.366048 44.2496303,119.728074 C36.259103,130.323116 29.5145598,140.376656 24.016,149.888694 Z" id="Path-3" stroke="#FFFFFF" stroke-width="0.1" fill="#FFFFFF"></path>
            </g>
        </g>
    </g>
</svg>