<svg xmlns="http://www.w3.org/2000/svg" viewBox="0 0 23.21 25.78"><defs><style>.cls-1{fill:#ffffff;}.cls-2{fill:none;stroke:#ffffff;stroke-miterlimit:10;}.cls-3{opacity:0.1;}</style></defs><title>landingРесурс 15</title><g id="Слой_2" data-name="Слой 2"><g id="Element"><g id="surface1"><path class="cls-1" d="M11.6,5a8.16,8.16,0,0,0-3,15.75A.72.72,0,0,0,9.23,20V18.54H8.34a1.64,1.64,0,0,1-1.46-.78c-.07-.14-.14-.31-.2-.47a2,2,0,0,0-.64-1,.5.5,0,0,1-.17-.48.47.47,0,0,1,.54-.27,2.09,2.09,0,0,1,1.16.81c.27.34.47.54.88.54h.1a3.08,3.08,0,0,0,1.19-.14A3,3,0,0,1,10,16.4C8,16,6.82,14.81,6.82,13a3.08,3.08,0,0,1,.54-1.77c-.14-.51-.44-1.83.2-2.41l.1-.1H7.8a3.18,3.18,0,0,1,1.94.68,5.43,5.43,0,0,1,3.74,0,3,3,0,0,1,1.94-.68h.14l.1.1c.65.61.34,1.9.2,2.41A3.37,3.37,0,0,1,16.39,13c0,1.8-1.16,3-3.16,3.4a3.11,3.11,0,0,1,.78,2v1.66a.69.69,0,0,0,.58.68,8.29,8.29,0,0,0,5.16-7.64A8.17,8.17,0,0,0,11.6,5Z"/></g><path class="cls-2" d="M21.31,5.67,13,.87a2.79,2.79,0,0,0-2.79,0L1.9,5.67A2.79,2.79,0,0,0,.5,8.09v9.6a2.79,2.79,0,0,0,1.4,2.42l8.31,4.8a2.79,2.79,0,0,0,2.79,0l8.31-4.8a2.79,2.79,0,0,0,1.4-2.42V8.09A2.79,2.79,0,0,0,21.31,5.67Z"/><path class="cls-3" d="M20.64,6.8,12.33,2a1.45,1.45,0,0,0-.73-.19v22.1a1.45,1.45,0,0,0,.73-.19l8.31-4.8a1.46,1.46,0,0,0,.73-1.26V8.06A1.46,1.46,0,0,0,20.64,6.8Z"/></g></g></svg>