<?xml version="1.0" encoding="UTF-8"?>
<svg width="24px" height="27px" viewBox="0 0 24 27" version="1.1" xmlns="http://www.w3.org/2000/svg" xmlns:xlink="http://www.w3.org/1999/xlink">
    <!-- Generator: Sketch 48.2 (47327) - http://www.bohemiancoding.com/sketch -->
    <title>Group</title>
    <desc>Created with Sketch.</desc>
    <defs></defs>
    <g id="Artboard" stroke="none" stroke-width="1" fill="none" fill-rule="evenodd" transform="translate(-217.000000, -119.000000)">
        <g id="Group" transform="translate(217.000000, 120.000000)">
            <g id="icons8-medium-filled" transform="translate(5.000000, 7.000000)" fill="#FFFFFF" fill-rule="nonzero">
                <path d="M4,10.5634064 C4,10.8368771 3.86383943,11 3.67075886,11 C3.60267857,11 3.52678571,10.9796097 3.44642857,10.9364301 L0.332589429,9.24163139 C0.149553714,9.14207838 0,8.87820312 0,8.6563081 L0,0.349035076 C0,0.129538763 0.108258857,0 0.263392857,0 C0.318080286,0 0.379464286,0.0155928591 0.443080286,0.050376339 L0.552455429,0.110347835 C0.552455429,0.110347835 0.553571429,0.110347835 0.553571429,0.110347835 L3.98549114,1.97786523 C3.99107143,1.98146329 3.99553571,1.98746069 4,1.99225842 L4,10.5634064 Z M8.18024094,0.571015031 L8.4109023,0.204949248 C8.49310585,0.0746348007 8.64401736,0 8.79738255,0 C8.83296353,0 8.86977104,0.00473871269 8.9053517,0.0142161381 C8.93234415,0.0201394531 8.96056344,0.0296168785 8.99000957,0.0438330166 L12.9689179,1.98907473 C12.9701451,1.98907473 12.9701451,1.99025933 12.9701451,1.99025933 L12.9738256,1.99144393 C12.9762796,1.99262884 12.9762796,1.99618264 12.9787333,1.99736755 C12.9983641,2.01276829 13.0069526,2.03883106 12.9934564,2.06015542 L9.03049792,8.35790458 L8.62561345,9 L6,4.03501401 L8.18024094,0.571015031 Z M5,6.70670522 L5,3 L8,8 L5.30143548,6.83769975 L5,6.70670522 Z M13,10.5865251 C13,10.8498694 12.8374919,11 12.5982087,11 C12.4907231,11 12.3678824,10.9704661 12.2386435,10.9077064 L11.6461933,10.6185204 L9,9.33010312 L13,3 L13,10.5865251 Z" id="Shape"></path>
            </g>
            <g id="Page-1">
                <path d="M21.3122,5.6733 L12.9992,0.8733 C12.1352,0.3753 11.0722,0.3753 10.2082,0.8733 L1.8952,5.6733 C1.0312,6.1723 0.5002,7.0933 0.5002,8.0903 L0.5002,17.6893 C0.5002,18.6863 1.0312,19.6073 1.8952,20.1053 L10.2082,24.9053 C10.6402,25.1543 11.1222,25.2793 11.6042,25.2793 C12.0852,25.2793 12.5672,25.1543 12.9992,24.9053 L21.3122,20.1053 C22.1762,19.6073 22.7072,18.6863 22.7072,17.6893 L22.7072,8.0903 C22.7072,7.0933 22.1762,6.1723 21.3122,5.6733 Z" id="Stroke-1" stroke="#FFFFFF"></path>
                <path d="M12.3289,2.0342 C12.1089,1.9072 11.8579,1.8392 11.6039,1.8392 L11.6039,23.9402 C11.8579,23.9402 12.1089,23.8722 12.3289,23.7452 L20.6429,18.9462 C21.0899,18.6872 21.3679,18.2062 21.3679,17.6892 L21.3679,8.0902 C21.3679,7.5732 21.0899,7.0922 20.6429,6.8332 L12.3289,2.0342 Z" id="Fill-9" fill="#000000" opacity="0.1"></path>
            </g>
        </g>
    </g>
</svg>